%TF.GenerationSoftware,KiCad,Pcbnew,8.0.7*%
%TF.CreationDate,2025-03-18T01:08:04+05:30*%
%TF.ProjectId,design,64657369-676e-42e6-9b69-6361645f7063,rev?*%
%TF.SameCoordinates,Original*%
%TF.FileFunction,Legend,Top*%
%TF.FilePolarity,Positive*%
%FSLAX46Y46*%
G04 Gerber Fmt 4.6, Leading zero omitted, Abs format (unit mm)*
G04 Created by KiCad (PCBNEW 8.0.7) date 2025-03-18 01:08:04*
%MOMM*%
%LPD*%
G01*
G04 APERTURE LIST*
%ADD10C,0.150000*%
%ADD11C,0.120000*%
G04 APERTURE END LIST*
D10*
X154809819Y-55809523D02*
X153809819Y-55809523D01*
X153809819Y-55809523D02*
X154524104Y-55476190D01*
X154524104Y-55476190D02*
X153809819Y-55142857D01*
X153809819Y-55142857D02*
X154809819Y-55142857D01*
X154809819Y-54142857D02*
X154809819Y-54714285D01*
X154809819Y-54428571D02*
X153809819Y-54428571D01*
X153809819Y-54428571D02*
X153952676Y-54523809D01*
X153952676Y-54523809D02*
X154047914Y-54619047D01*
X154047914Y-54619047D02*
X154095533Y-54714285D01*
X190531905Y-92964819D02*
X190531905Y-91964819D01*
X190531905Y-91964819D02*
X190770000Y-91964819D01*
X190770000Y-91964819D02*
X190912857Y-92012438D01*
X190912857Y-92012438D02*
X191008095Y-92107676D01*
X191008095Y-92107676D02*
X191055714Y-92202914D01*
X191055714Y-92202914D02*
X191103333Y-92393390D01*
X191103333Y-92393390D02*
X191103333Y-92536247D01*
X191103333Y-92536247D02*
X191055714Y-92726723D01*
X191055714Y-92726723D02*
X191008095Y-92821961D01*
X191008095Y-92821961D02*
X190912857Y-92917200D01*
X190912857Y-92917200D02*
X190770000Y-92964819D01*
X190770000Y-92964819D02*
X190531905Y-92964819D01*
X192055714Y-92964819D02*
X191484286Y-92964819D01*
X191770000Y-92964819D02*
X191770000Y-91964819D01*
X191770000Y-91964819D02*
X191674762Y-92107676D01*
X191674762Y-92107676D02*
X191579524Y-92202914D01*
X191579524Y-92202914D02*
X191484286Y-92250533D01*
X172023333Y-121824819D02*
X171690000Y-121348628D01*
X171451905Y-121824819D02*
X171451905Y-120824819D01*
X171451905Y-120824819D02*
X171832857Y-120824819D01*
X171832857Y-120824819D02*
X171928095Y-120872438D01*
X171928095Y-120872438D02*
X171975714Y-120920057D01*
X171975714Y-120920057D02*
X172023333Y-121015295D01*
X172023333Y-121015295D02*
X172023333Y-121158152D01*
X172023333Y-121158152D02*
X171975714Y-121253390D01*
X171975714Y-121253390D02*
X171928095Y-121301009D01*
X171928095Y-121301009D02*
X171832857Y-121348628D01*
X171832857Y-121348628D02*
X171451905Y-121348628D01*
X172975714Y-121824819D02*
X172404286Y-121824819D01*
X172690000Y-121824819D02*
X172690000Y-120824819D01*
X172690000Y-120824819D02*
X172594762Y-120967676D01*
X172594762Y-120967676D02*
X172499524Y-121062914D01*
X172499524Y-121062914D02*
X172404286Y-121110533D01*
X139995714Y-59099104D02*
X140471904Y-59099104D01*
X139900476Y-59384819D02*
X140233809Y-58384819D01*
X140233809Y-58384819D02*
X140567142Y-59384819D01*
X141424285Y-59384819D02*
X140852857Y-59384819D01*
X141138571Y-59384819D02*
X141138571Y-58384819D01*
X141138571Y-58384819D02*
X141043333Y-58527676D01*
X141043333Y-58527676D02*
X140948095Y-58622914D01*
X140948095Y-58622914D02*
X140852857Y-58670533D01*
D11*
%TO.C,M1*%
X145615000Y-53670000D02*
X145615000Y-56330000D01*
X150755000Y-53670000D02*
X145615000Y-53670000D01*
X150755000Y-53670000D02*
X150755000Y-56330000D01*
X150755000Y-56330000D02*
X145615000Y-56330000D01*
X152025000Y-53670000D02*
X153355000Y-53670000D01*
X153355000Y-53670000D02*
X153355000Y-55000000D01*
%TO.C,D1*%
X193830000Y-90140000D02*
X193830000Y-86860000D01*
X188230000Y-88499949D02*
G75*
G02*
X193830000Y-86860488I3040000J-51D01*
G01*
X193830000Y-90139512D02*
G75*
G02*
X188230000Y-88500051I-2560000J1639512D01*
G01*
X193770000Y-88500000D02*
G75*
G02*
X188770000Y-88500000I-2500000J0D01*
G01*
X188770000Y-88500000D02*
G75*
G02*
X193770000Y-88500000I2500000J0D01*
G01*
%TO.C,R1*%
X168920000Y-117630000D02*
X168920000Y-117960000D01*
X168920000Y-120370000D02*
X168920000Y-120040000D01*
X175460000Y-117630000D02*
X168920000Y-117630000D01*
X175460000Y-117960000D02*
X175460000Y-117630000D01*
X175460000Y-120040000D02*
X175460000Y-120370000D01*
X175460000Y-120370000D02*
X168920000Y-120370000D01*
%TO.C,A1*%
X105020000Y-92460000D02*
X105020000Y-104140000D01*
X105020000Y-104140000D02*
X111370000Y-104140000D01*
X109470000Y-63250000D02*
X109470000Y-72390000D01*
X109470000Y-72390000D02*
X111370000Y-72390000D01*
X111370000Y-60070000D02*
X111370000Y-63250000D01*
X111370000Y-63250000D02*
X109470000Y-63250000D01*
X111370000Y-72390000D02*
X111370000Y-92460000D01*
X111370000Y-92460000D02*
X105020000Y-92460000D01*
X111370000Y-104140000D02*
X111370000Y-113670000D01*
X111370000Y-113670000D02*
X176020000Y-113670000D01*
X176020000Y-113670000D02*
X177670000Y-112020000D01*
X177670000Y-60070000D02*
X111370000Y-60070000D01*
X177670000Y-62740000D02*
X177670000Y-60070000D01*
X177670000Y-100590000D02*
X180210000Y-98050000D01*
X177670000Y-112020000D02*
X177670000Y-100590000D01*
X180210000Y-65280000D02*
X177670000Y-62740000D01*
X180210000Y-98050000D02*
X180210000Y-65280000D01*
%TD*%
M02*
